<?xml version="1.0" encoding="utf-8"?><svg xmlns="http://www.w3.org/2000/svg" xmlns:xlink="http://www.w3.org/1999/xlink"><symbol viewBox="0 0 23 8" id="arrow-left" xmlns="http://www.w3.org/2000/svg"><path d="M.646 4.354a.5.5 0 010-.708L3.828.464a.5.5 0 01.708.708L1.707 4l2.829 2.828a.5.5 0 11-.708.708L.646 4.354zM22.71 4.5H1v-1h21.71v1z"/></symbol><symbol viewBox="0 0 38 8" id="arrow-right" xmlns="http://www.w3.org/2000/svg"><path d="M37.354 4.354a.5.5 0 000-.708L34.172.464a.5.5 0 10-.707.708L36.293 4l-2.828 2.828a.5.5 0 10.707.708l3.182-3.182zM0 4.5h37v-1H0v1z"/></symbol><symbol viewBox="0 0 32 32" id="inst" xmlns="http://www.w3.org/2000/svg"><path clip-rule="evenodd" d="M16.002 0c-4.346 0-4.891.019-6.598.097C7.701.175 6.538.444 5.521.84a7.835 7.835 0 00-2.835 1.845A7.854 7.854 0 00.84 5.519C.443 6.537.173 7.7.096 9.402.02 11.11 0 11.655 0 16c0 4.346.02 4.89.097 6.596.078 1.703.348 2.866.743 3.883a7.84 7.84 0 001.845 2.835A7.834 7.834 0 005.52 31.16c1.018.396 2.18.666 3.884.744 1.706.077 2.252.096 6.596.096 4.346 0 4.89-.019 6.597-.096 1.703-.078 2.867-.348 3.885-.744a7.827 7.827 0 002.832-1.846 7.854 7.854 0 001.847-2.834c.393-1.018.663-2.181.743-3.884C31.98 20.89 32 20.346 32 16c0-4.345-.02-4.89-.097-6.597-.08-1.704-.35-2.866-.743-3.884a7.853 7.853 0 00-1.847-2.834A7.82 7.82 0 0026.48.84C25.46.444 24.297.175 22.593.097 20.887.019 20.343 0 15.996 0h.005zm-1.436 2.883h1.435c4.272 0 4.779.016 6.466.092 1.56.072 2.407.332 2.97.551.747.29 1.28.637 1.84 1.197s.906 1.093 1.197 1.84c.219.563.48 1.41.55 2.97.077 1.687.094 2.194.094 6.463 0 4.27-.017 4.777-.093 6.464-.072 1.56-.332 2.407-.551 2.97a4.947 4.947 0 01-1.198 1.838c-.56.56-1.091.907-1.838 1.197-.564.22-1.411.48-2.971.551-1.687.077-2.194.093-6.465.093-4.273 0-4.78-.016-6.466-.093-1.56-.072-2.407-.333-2.97-.552a4.956 4.956 0 01-1.84-1.196 4.96 4.96 0 01-1.198-1.84c-.22-.563-.48-1.41-.551-2.97-.077-1.686-.092-2.193-.092-6.465 0-4.273.015-4.777.092-6.464.071-1.56.332-2.407.55-2.97.29-.747.638-1.28 1.198-1.84a4.966 4.966 0 011.84-1.198c.564-.22 1.411-.48 2.971-.552 1.476-.066 2.048-.086 5.03-.09v.004zm9.976 2.657a1.92 1.92 0 100 3.84 1.92 1.92 0 000-3.84zm-8.54 2.243a8.217 8.217 0 100 16.435 8.217 8.217 0 000-16.435zm0 2.884a5.333 5.333 0 110 10.667 5.333 5.333 0 010-10.667z"/></symbol><symbol viewBox="0 0 156 47" id="logo" xmlns="http://www.w3.org/2000/svg"><path clip-rule="evenodd" d="M4.863 4.863H48.63A4.86 4.86 0 0043.767 0H4.863A4.86 4.86 0 000 4.863v14.59a4.862 4.862 0 004.863 4.862h38.904a4.861 4.861 0 004.863-4.863H4.863V4.862zM53.492 0v24.315H97.26a4.861 4.861 0 004.863-4.863V14.59a4.862 4.862 0 00-4.863-4.863H58.356V4.863h43.766V0h-48.63zm4.864 14.59h38.903v4.862H58.355V14.59zM106.985 0v24.315h4.864v-9.726l10.154-3.385 23.599 13.11h10.013L128.261 9.119 155.615 0h-15.378l-28.388 9.463V0h-4.864z"/><path clip-rule="evenodd" d="M.935 28.551v1.035h154.854V28.55H.935z"/><path d="M5.39 37.37l-1.459-3.847h-1.82v5.55h1.47v-3.407l1.297 3.407H5.9l1.376-3.53v3.53H8.73v-5.55H6.894L5.39 37.371zM15.195 39.18c1.373 0 2.297-.667 2.514-1.697l-1.423-.094c-.155.423-.553.643-1.066.643-.77 0-1.257-.51-1.257-1.337v-.003h3.779v-.423c0-1.886-1.142-2.818-2.609-2.818-1.632 0-2.691 1.16-2.691 2.872 0 1.76 1.044 2.858 2.753 2.858zm-1.232-3.442c.032-.632.513-1.138 1.196-1.138.668 0 1.13.477 1.134 1.138h-2.33zM26.106 31.486c-.27.191-.704.188-1.297.188-.14 0-.289-.004-.448 0-2.02.018-3.074 1.282-3.074 3.956v.455c0 2.016 1.04 3.096 2.72 3.096 1.677 0 2.713-1.08 2.713-2.775 0-1.625-.95-2.597-2.366-2.597-.892 0-1.492.386-1.824 1.066h-.054c.13-1.362.65-1.922 1.936-1.937 1.138-.018 1.69-.058 2.164-.448l-.47-1.004zm-2.091 6.503c-.727 0-1.164-.586-1.164-1.532.008-.947.441-1.481 1.156-1.481.712 0 1.15.534 1.15 1.48 0 .951-.438 1.533-1.142 1.533zM33.018 39.18c1.372 0 2.297-.667 2.514-1.697l-1.423-.094c-.156.423-.553.643-1.066.643-.77 0-1.257-.51-1.257-1.337v-.003h3.779v-.423c0-1.886-1.142-2.818-2.609-2.818-1.633 0-2.691 1.16-2.691 2.872 0 1.76 1.044 2.858 2.753 2.858zm-1.232-3.442c.032-.632.513-1.138 1.195-1.138.669 0 1.131.477 1.135 1.138h-2.33zM38.99 39.072h.463c1.178 0 1.803-.78 1.897-2.644l.086-1.694h1.37v4.338h1.466v-5.549h-4.22l-.09 2.457c-.054 1.405-.27 1.871-.794 1.871h-.185l.008 1.221zM49.682 35.229v-1.706h-1.47v5.55h2.623c1.47 0 2.334-.77 2.337-1.915-.003-1.167-.867-1.93-2.337-1.93h-1.153zm0 1.21h1.153c.517 0 .882.303.889.73-.007.404-.372.693-.889.693h-1.153V36.44zM58.41 33.523h-1.47v5.55h1.47v-2.179h1.897v2.178h1.46v-5.549h-1.46v2.16H58.41v-2.16zM67.29 39.177c.82 0 1.35-.357 1.622-.874h.043v.77h1.46V35.33c0-1.322-1.12-1.879-2.356-1.879-1.33 0-2.204.636-2.417 1.648l1.424.115c.104-.368.433-.64.986-.64.524 0 .823.264.823.72v.021c0 .358-.379.405-1.344.499-1.098.101-2.084.47-2.084 1.709 0 1.098.784 1.654 1.843 1.654zm.44-1.062c-.473 0-.813-.22-.813-.643 0-.434.358-.647.9-.723.336-.046.885-.126 1.07-.249v.59c0 .58-.481 1.025-1.157 1.025zM77.607 39.072h1.434v-5.549h-2.475c-1.438 0-2.334.737-2.326 1.821-.004.676.375 1.203 1.037 1.492l-1.196 2.236h1.474l1.065-2h.987v2zm0-3.041h-1.055c-.56 0-.853-.282-.846-.643-.007-.355.293-.658.86-.658h1.04v1.3zM88.085 39.072h1.539v-1.968h.574l1.37 1.968h1.828l-1.984-2.796 1.962-2.753h-1.806l-1.51 2.154h-.434v-2.154h-1.54v5.55zM99.071 39.18c1.684 0 2.731-1.152 2.731-2.86 0-1.72-1.047-2.869-2.73-2.869-1.684 0-2.732 1.149-2.732 2.869 0 1.708 1.048 2.86 2.731 2.86zm.008-1.191c-.777 0-1.175-.712-1.175-1.68s.398-1.684 1.175-1.684c.762 0 1.159.716 1.159 1.684s-.397 1.68-1.16 1.68zM108.83 37.37l-1.459-3.847h-1.821v5.55h1.47v-3.407l1.297 3.407h1.023l1.376-3.53v3.53h1.452v-5.55h-1.835l-1.503 3.848zM116.106 39.072h1.452v-4.338h1.929v4.338h1.47v-5.549h-4.851v5.55zM126.515 39.177c.82 0 1.351-.357 1.622-.874h.043v.77h1.46V35.33c0-1.322-1.12-1.879-2.356-1.879-1.329 0-2.203.636-2.416 1.648l1.423.115c.105-.368.433-.64.986-.64.524 0 .824.264.824.72v.021c0 .358-.379.405-1.344.499-1.098.101-2.085.47-2.085 1.709 0 1.098.784 1.654 1.843 1.654zm.441-1.062c-.474 0-.813-.22-.813-.643 0-.434.357-.647.899-.723.336-.046.885-.126 1.07-.249v.59c0 .58-.481 1.025-1.156 1.025zM135.051 33.523h-1.47v5.55h1.47v-2.179h1.897v2.178h1.459v-5.549h-1.459v2.16h-1.897v-2.16zM143.818 37.042v-3.519h-1.47v5.55h1.528l1.991-3.53v3.53h1.467v-5.55h-1.518l-1.998 3.52zM154.565 39.072H156v-5.549h-2.475c-1.438 0-2.334.737-2.327 1.821-.003.676.376 1.203 1.037 1.492l-1.196 2.236h1.474l1.066-2h.986v2zm0-3.041h-1.054c-.56 0-.853-.282-.846-.643-.007-.355.293-.658.86-.658h1.04v1.3z"/></symbol><symbol viewBox="0 0 224 32" id="logo-2" xmlns="http://www.w3.org/2000/svg"><g opacity=".25" clip-rule="evenodd"><path d="M7.17 6.33h62.778c0-1.68-.735-3.29-2.043-4.476C66.597.667 64.823 0 62.973 0H7.17C5.32 0 3.545.667 2.237 1.854.93 3.041.194 4.65.194 6.329v18.989c0 1.679.735 3.288 2.043 4.475 1.308 1.187 3.082 1.854 4.932 1.854h55.804c1.85 0 3.624-.667 4.932-1.854 1.308-1.187 2.043-2.796 2.043-4.475H7.169V6.329z"/><path d="M76.924 0v31.646h62.778c1.851 0 3.625-.666 4.933-1.853 1.307-1.187 2.043-2.797 2.043-4.476v-6.329c0-1.678-.736-3.288-2.043-4.476-1.308-1.187-3.082-1.854-4.933-1.854H83.9V6.33h62.778V0H76.924zM83.9 18.988h55.802v6.33H83.9v-6.33z"/><path d="M153.653 0v31.646h6.976V18.989l14.565-4.405 33.85 17.063h14.363l-39.236-19.779L223.407 0h-22.058l-40.72 12.317V0h-6.976z"/></g><defs><linearGradient id="epaint0_linear" x1="35.071" y1="0" x2="35.071" y2="31.647" gradientUnits="userSpaceOnUse"><stop stop-color="#242734" stop-opacity=".34"/><stop offset="1" stop-color="#242734"/></linearGradient><linearGradient id="epaint1_linear" x1="111.801" y1="0" x2="111.801" y2="31.646" gradientUnits="userSpaceOnUse"><stop stop-color="#242734" stop-opacity=".34"/><stop offset="1" stop-color="#242734"/></linearGradient><linearGradient id="epaint2_linear" x1="188.53" y1="0" x2="188.53" y2="31.646" gradientUnits="userSpaceOnUse"><stop stop-color="#242734" stop-opacity=".34"/><stop offset="1" stop-color="#242734"/></linearGradient></defs></symbol><symbol viewBox="0 0 14 13" id="star" xmlns="http://www.w3.org/2000/svg"><path d="M6.524 1.082a.5.5 0 01.952 0l.845 2.6A1.5 1.5 0 009.747 4.72h2.735a.5.5 0 01.294.904l-2.213 1.608a1.5 1.5 0 00-.545 1.677l.845 2.6a.5.5 0 01-.769.56L7.882 10.46a1.5 1.5 0 00-1.764 0l-2.212 1.608a.5.5 0 01-.77-.56l.846-2.6a1.5 1.5 0 00-.545-1.677L1.224 5.623a.5.5 0 01.294-.904h2.735a1.5 1.5 0 001.426-1.037l.845-2.6z"/></symbol></svg>