<?xml version="1.0" encoding="utf-8"?><svg width="54" height="389" viewBox="0 0 54 389" xmlns="http://www.w3.org/2000/svg" xmlns:xlink="http://www.w3.org/1999/xlink"><svg width="43" height="28" fill="none" viewBox="-10 -10 43 28" id="mono--arrow-left" xmlns="http://www.w3.org/2000/svg"><path d="M.646 4.354a.5.5 0 010-.708L3.828.464a.5.5 0 01.708.708L1.707 4l2.829 2.828a.5.5 0 11-.708.708L.646 4.354zM22.71 4.5H1v-1h21.71v1z" fill="#242734"/></svg><svg width="54" height="27" fill="none" viewBox="-11 -11 60 30" id="mono--arrow-right" y="28" xmlns="http://www.w3.org/2000/svg"><path d="M37.354 4.354a.5.5 0 000-.708L34.172.464a.5.5 0 10-.707.708L36.293 4l-2.828 2.828a.5.5 0 10.707.708l3.182-3.182zM0 4.5h37v-1H0v1z" fill="#242734"/></svg><svg width="52" height="52" fill="none" viewBox="-10 -10 52 52" id="mono--inst" y="55" xmlns="http://www.w3.org/2000/svg"><path fill-rule="evenodd" clip-rule="evenodd" d="M16.002 0c-4.346 0-4.891.019-6.598.097C7.701.175 6.538.444 5.521.84a7.835 7.835 0 00-2.835 1.845A7.854 7.854 0 00.84 5.519C.443 6.537.173 7.7.096 9.402.02 11.11 0 11.655 0 16c0 4.346.02 4.89.097 6.596.078 1.703.348 2.866.743 3.883a7.84 7.84 0 001.845 2.835A7.834 7.834 0 005.52 31.16c1.018.396 2.18.666 3.884.744 1.706.077 2.252.096 6.596.096 4.346 0 4.89-.019 6.597-.096 1.703-.078 2.867-.348 3.885-.744a7.827 7.827 0 002.832-1.846 7.854 7.854 0 001.847-2.834c.393-1.018.663-2.181.743-3.884C31.98 20.89 32 20.346 32 16c0-4.345-.02-4.89-.097-6.597-.08-1.704-.35-2.866-.743-3.884a7.853 7.853 0 00-1.847-2.834A7.82 7.82 0 0026.48.84C25.46.444 24.297.175 22.593.097 20.887.019 20.343 0 15.996 0h.005zm-1.436 2.883h1.435c4.272 0 4.779.016 6.466.092 1.56.072 2.407.332 2.97.551.747.29 1.28.637 1.84 1.197s.906 1.093 1.197 1.84c.219.563.48 1.41.55 2.97.077 1.687.094 2.194.094 6.463 0 4.27-.017 4.777-.093 6.464-.072 1.56-.332 2.407-.551 2.97a4.947 4.947 0 01-1.198 1.838c-.56.56-1.091.907-1.838 1.197-.564.22-1.411.48-2.971.551-1.687.077-2.194.093-6.465.093-4.273 0-4.78-.016-6.466-.093-1.56-.072-2.407-.333-2.97-.552a4.956 4.956 0 01-1.84-1.196 4.96 4.96 0 01-1.198-1.84c-.22-.563-.48-1.41-.551-2.97-.077-1.686-.092-2.193-.092-6.465 0-4.273.015-4.777.092-6.464.071-1.56.332-2.407.55-2.97.29-.747.638-1.28 1.198-1.84a4.966 4.966 0 011.84-1.198c.564-.22 1.411-.48 2.971-.552 1.476-.066 2.048-.086 5.03-.09v.004zm9.976 2.657a1.92 1.92 0 100 3.84 1.92 1.92 0 000-3.84zm-8.54 2.243a8.217 8.217 0 100 16.435 8.217 8.217 0 000-16.435zm0 2.884a5.333 5.333 0 110 10.667 5.333 5.333 0 010-10.667z" fill="#242734"/></svg><svg width="54" height="30" fill="none" viewBox="-46 -46 248 139" id="mono--logo" y="107" xmlns="http://www.w3.org/2000/svg"><path fill-rule="evenodd" clip-rule="evenodd" d="M4.863 4.863H48.63A4.86 4.86 0 0043.767 0H4.863A4.86 4.86 0 000 4.863v14.59a4.862 4.862 0 004.863 4.862h38.904a4.861 4.861 0 004.863-4.863H4.863V4.862zM53.492 0v24.315H97.26a4.861 4.861 0 004.863-4.863V14.59a4.862 4.862 0 00-4.863-4.863H58.356V4.863h43.766V0h-48.63zm4.864 14.59h38.903v4.862H58.355V14.59zM106.985 0v24.315h4.864v-9.726l10.154-3.385 23.599 13.11h10.013L128.261 9.119 155.615 0h-15.378l-28.388 9.463V0h-4.864z" fill="#1B1918"/><path fill-rule="evenodd" clip-rule="evenodd" d="M.935 28.551v1.035h154.854V28.55H.935z" fill="#1B1918" stroke="#1B1918" stroke-width=".116"/><path d="M5.39 37.37l-1.459-3.847h-1.82v5.55h1.47v-3.407l1.297 3.407H5.9l1.376-3.53v3.53H8.73v-5.55H6.894L5.39 37.371zM15.195 39.18c1.373 0 2.297-.667 2.514-1.697l-1.423-.094c-.155.423-.553.643-1.066.643-.77 0-1.257-.51-1.257-1.337v-.003h3.779v-.423c0-1.886-1.142-2.818-2.609-2.818-1.632 0-2.691 1.16-2.691 2.872 0 1.76 1.044 2.858 2.753 2.858zm-1.232-3.442c.032-.632.513-1.138 1.196-1.138.668 0 1.13.477 1.134 1.138h-2.33zM26.106 31.486c-.27.191-.704.188-1.297.188-.14 0-.289-.004-.448 0-2.02.018-3.074 1.282-3.074 3.956v.455c0 2.016 1.04 3.096 2.72 3.096 1.677 0 2.713-1.08 2.713-2.775 0-1.625-.95-2.597-2.366-2.597-.892 0-1.492.386-1.824 1.066h-.054c.13-1.362.65-1.922 1.936-1.937 1.138-.018 1.69-.058 2.164-.448l-.47-1.004zm-2.091 6.503c-.727 0-1.164-.586-1.164-1.532.008-.947.441-1.481 1.156-1.481.712 0 1.15.534 1.15 1.48 0 .951-.438 1.533-1.142 1.533zM33.018 39.18c1.372 0 2.297-.667 2.514-1.697l-1.423-.094c-.156.423-.553.643-1.066.643-.77 0-1.257-.51-1.257-1.337v-.003h3.779v-.423c0-1.886-1.142-2.818-2.609-2.818-1.633 0-2.691 1.16-2.691 2.872 0 1.76 1.044 2.858 2.753 2.858zm-1.232-3.442c.032-.632.513-1.138 1.195-1.138.669 0 1.131.477 1.135 1.138h-2.33zM38.99 39.072h.463c1.178 0 1.803-.78 1.897-2.644l.086-1.694h1.37v4.338h1.466v-5.549h-4.22l-.09 2.457c-.054 1.405-.27 1.871-.794 1.871h-.185l.008 1.221zM49.682 35.229v-1.706h-1.47v5.55h2.623c1.47 0 2.334-.77 2.337-1.915-.003-1.167-.867-1.93-2.337-1.93h-1.153zm0 1.21h1.153c.517 0 .882.303.889.73-.007.404-.372.693-.889.693h-1.153V36.44zM58.41 33.523h-1.47v5.55h1.47v-2.179h1.897v2.178h1.46v-5.549h-1.46v2.16H58.41v-2.16zM67.29 39.177c.82 0 1.35-.357 1.622-.874h.043v.77h1.46V35.33c0-1.322-1.12-1.879-2.356-1.879-1.33 0-2.204.636-2.417 1.648l1.424.115c.104-.368.433-.64.986-.64.524 0 .823.264.823.72v.021c0 .358-.379.405-1.344.499-1.098.101-2.084.47-2.084 1.709 0 1.098.784 1.654 1.843 1.654zm.44-1.062c-.473 0-.813-.22-.813-.643 0-.434.358-.647.9-.723.336-.046.885-.126 1.07-.249v.59c0 .58-.481 1.025-1.157 1.025zM77.607 39.072h1.434v-5.549h-2.475c-1.438 0-2.334.737-2.326 1.821-.004.676.375 1.203 1.037 1.492l-1.196 2.236h1.474l1.065-2h.987v2zm0-3.041h-1.055c-.56 0-.853-.282-.846-.643-.007-.355.293-.658.86-.658h1.04v1.3zM88.085 39.072h1.539v-1.968h.574l1.37 1.968h1.828l-1.984-2.796 1.962-2.753h-1.806l-1.51 2.154h-.434v-2.154h-1.54v5.55zM99.071 39.18c1.684 0 2.731-1.152 2.731-2.86 0-1.72-1.047-2.869-2.73-2.869-1.684 0-2.732 1.149-2.732 2.869 0 1.708 1.048 2.86 2.731 2.86zm.008-1.191c-.777 0-1.175-.712-1.175-1.68s.398-1.684 1.175-1.684c.762 0 1.159.716 1.159 1.684s-.397 1.68-1.16 1.68zM108.83 37.37l-1.459-3.847h-1.821v5.55h1.47v-3.407l1.297 3.407h1.023l1.376-3.53v3.53h1.452v-5.55h-1.835l-1.503 3.848zM116.106 39.072h1.452v-4.338h1.929v4.338h1.47v-5.549h-4.851v5.55zM126.515 39.177c.82 0 1.351-.357 1.622-.874h.043v.77h1.46V35.33c0-1.322-1.12-1.879-2.356-1.879-1.329 0-2.203.636-2.416 1.648l1.423.115c.105-.368.433-.64.986-.64.524 0 .824.264.824.72v.021c0 .358-.379.405-1.344.499-1.098.101-2.085.47-2.085 1.709 0 1.098.784 1.654 1.843 1.654zm.441-1.062c-.474 0-.813-.22-.813-.643 0-.434.357-.647.899-.723.336-.046.885-.126 1.07-.249v.59c0 .58-.481 1.025-1.156 1.025zM135.051 33.523h-1.47v5.55h1.47v-2.179h1.897v2.178h1.459v-5.549h-1.459v2.16h-1.897v-2.16zM143.818 37.042v-3.519h-1.47v5.55h1.528l1.991-3.53v3.53h1.467v-5.55h-1.518l-1.998 3.52zM154.565 39.072H156v-5.549h-2.475c-1.438 0-2.334.737-2.327 1.821-.003.676.376 1.203 1.037 1.492l-1.196 2.236h1.474l1.066-2h.986v2zm0-3.041h-1.054c-.56 0-.853-.282-.846-.643-.007-.355.293-.658.86-.658h1.04v1.3z" fill="#1B1918"/></svg><svg width="54" height="25" fill="none" viewBox="-66 -66 356 164" id="mono--logo-2" y="137" xmlns="http://www.w3.org/2000/svg"><g opacity=".25" fill-rule="evenodd" clip-rule="evenodd"><path d="M7.17 6.33h62.778c0-1.68-.735-3.29-2.043-4.476C66.597.667 64.823 0 62.973 0H7.17C5.32 0 3.545.667 2.237 1.854.93 3.041.194 4.65.194 6.329v18.989c0 1.679.735 3.288 2.043 4.475 1.308 1.187 3.082 1.854 4.932 1.854h55.804c1.85 0 3.624-.667 4.932-1.854 1.308-1.187 2.043-2.796 2.043-4.475H7.169V6.329z" fill="url(#epaint0_linear)"/><path d="M76.924 0v31.646h62.778c1.851 0 3.625-.666 4.933-1.853 1.307-1.187 2.043-2.797 2.043-4.476v-6.329c0-1.678-.736-3.288-2.043-4.476-1.308-1.187-3.082-1.854-4.933-1.854H83.9V6.33h62.778V0H76.924zM83.9 18.988h55.802v6.33H83.9v-6.33z" fill="url(#epaint1_linear)"/><path d="M153.653 0v31.646h6.976V18.989l14.565-4.405 33.85 17.063h14.363l-39.236-19.779L223.407 0h-22.058l-40.72 12.317V0h-6.976z" fill="url(#epaint2_linear)"/></g><defs><linearGradient id="epaint0_linear" x1="35.071" y1="0" x2="35.071" y2="31.647" gradientUnits="userSpaceOnUse"><stop stop-color="#242734" stop-opacity=".34"/><stop offset="1" stop-color="#242734"/></linearGradient><linearGradient id="epaint1_linear" x1="111.801" y1="0" x2="111.801" y2="31.646" gradientUnits="userSpaceOnUse"><stop stop-color="#242734" stop-opacity=".34"/><stop offset="1" stop-color="#242734"/></linearGradient><linearGradient id="epaint2_linear" x1="188.53" y1="0" x2="188.53" y2="31.646" gradientUnits="userSpaceOnUse"><stop stop-color="#242734" stop-opacity=".34"/><stop offset="1" stop-color="#242734"/></linearGradient></defs></svg><svg width="34" height="33" fill="none" viewBox="-10 -10 34 33" id="mono--star" y="162" xmlns="http://www.w3.org/2000/svg"><path d="M6.524 1.082a.5.5 0 01.952 0l.845 2.6A1.5 1.5 0 009.747 4.72h2.735a.5.5 0 01.294.904l-2.213 1.608a1.5 1.5 0 00-.545 1.677l.845 2.6a.5.5 0 01-.769.56L7.882 10.46a1.5 1.5 0 00-1.764 0l-2.212 1.608a.5.5 0 01-.77-.56l.846-2.6a1.5 1.5 0 00-.545-1.677L1.224 5.623a.5.5 0 01.294-.904h2.735a1.5 1.5 0 001.426-1.037l.845-2.6z" fill="#FFDD63" stroke="#242734"/></svg><svg width="54" height="53" fill="none" viewBox="-17 -17 92 91" id="multi--contract" y="195" xmlns="http://www.w3.org/2000/svg"><g clip-path="url(#gclip0)"><path d="M13.096 20.226c2.584 0 4.678-2.058 4.678-4.597 0-2.539-2.094-4.597-4.678-4.597-2.583 0-4.677 2.058-4.677 4.597 0 2.539 2.094 4.597 4.677 4.597z" fill="#FFDD63"/><path d="M17.438 13.577l-1.2-1.412-4.954 4.059-1.268-1.245-1.323 1.3 2.475 2.433 6.27-5.135zM34.613 12.87H20.581v1.84h14.032v-1.84zM36.484 16.548H20.581v1.839h15.903v-1.839zM17.438 22.77l-1.2-1.412-4.954 4.06-1.268-1.246-1.323 1.3 2.475 2.433 6.27-5.135zM40.226 22.064H20.581v1.84h19.645v-1.84zM24.323 25.742h-3.742v1.839h3.742v-1.84zM40.225 25.742H26.193v1.839h14.032v-1.84zM17.438 31.964l-1.2-1.412-4.954 4.059-1.268-1.245-1.323 1.3 2.475 2.433 6.27-5.135zM40.226 31.258H20.581v1.839h19.645v-1.839zM34.613 34.935H20.581v1.839h14.032v-1.839zM40.225 34.935h-3.742v1.839h3.742v-1.839zM40.225 12.87h-3.742v1.84h3.742v-1.84z" fill="#242734"/><path d="M55.194 42.29H47.71V4.597C47.71 2.062 45.612 0 43.033 0H4.678C2.1 0 .001 2.062.001 4.597c0 2.535 2.098 4.597 4.677 4.597V57h39.29v-5.516h3.742v-3.678h7.484c1.547 0 2.807-1.237 2.807-2.758 0-1.52-1.26-2.758-2.807-2.758zM45.84 4.597V42.29h-1.87V7.355h-.936c-1.547 0-2.806-1.238-2.806-2.758 0-1.521 1.259-2.758 2.806-2.758 1.547 0 2.806 1.237 2.806 2.758zm-43.967 0c0-1.52 1.259-2.758 2.806-2.758h34.637c-.594.77-.96 1.719-.96 2.758a4.5 4.5 0 00.96 2.758H4.678c-1.547 0-2.806-1.238-2.806-2.758zM6.549 55.16V9.194h35.549V42.29H15.753l-8.42 2.758 8.42 2.758h26.344v7.355H6.55zm6.7-10.113l1.72-.563v1.126l-1.72-.563zm32.59 4.597h-1.87v-1.839h1.87v1.839zm1.871-3.677H16.84v-1.84h30.87v1.84zm3.742 0h-1.87v-1.84h1.87v1.84zm3.742 0h-1.87v-1.84h1.87c.517 0 .936.414.936.92 0 .507-.42.92-.936.92z" fill="#242734"/><path fill="#FFDD63" d="M17 44h31v2H17z"/></g><defs><clipPath id="gclip0"><path fill="#fff" d="M0 0h58v57H0z"/></clipPath></defs></svg><svg width="54" height="54" fill="none" viewBox="-25 -25 133 133" id="multi--delivery" y="248" xmlns="http://www.w3.org/2000/svg"><g clip-path="url(#hclip0)"><path fill="#FFDD63" d="M71 47h4v4h-4z"/><circle cx="22" cy="61" r="6" fill="#FFDD63"/><circle cx="64" cy="61" r="6" fill="#FFDD63"/><path d="M71.404 40.59l-1.988-7.954c.543-.115.951-.597.951-1.175v-1.282a5.055 5.055 0 00-5.049-5.05h-9.056v-2.645A2.487 2.487 0 0053.777 20H7.614a2.487 2.487 0 00-2.485 2.485v21.799a1.202 1.202 0 002.405 0v-21.8a.08.08 0 01.08-.08h46.163a.08.08 0 01.08.08v21.8a1.202 1.202 0 002.405 0v-1.362H70.45a3.934 3.934 0 013.735 2.725h-3.738c-.664 0-1.202.538-1.202 1.202v2.564a3.771 3.771 0 003.767 3.767h1.362v5.29h-3.143c-1.033-2.982-3.867-5.13-7.195-5.13-3.329 0-6.163 2.148-7.196 5.13h-.579v-9.057a1.202 1.202 0 00-2.404 0v9.056H28.915c-1.033-2.981-3.867-5.129-7.196-5.129-3.328 0-6.163 2.148-7.195 5.13h-6.91a.08.08 0 01-.08-.08v-2.646h5.209a1.202 1.202 0 100-2.404H1.203a1.202 1.202 0 000 2.404h3.926v2.645a2.487 2.487 0 002.485 2.485h6.494l-.002.08c0 4.198 3.415 7.613 7.613 7.613s7.614-3.415 7.614-7.613l-.002-.08h27.093l-.002.08c0 4.198 3.415 7.613 7.614 7.613 4.198 0 7.613-3.415 7.613-7.613l-.002-.08h3.93c.663 0 1.202-.538 1.202-1.203V46.849c0-3.166-2.336-5.796-5.375-6.258zM56.262 27.534h9.056a2.648 2.648 0 012.645 2.645v.08H56.262v-2.725zm0 12.983v-7.854h10.682l1.964 7.854H56.262zM21.719 66.164a5.215 5.215 0 01-5.21-5.21 5.215 5.215 0 015.21-5.21 5.215 5.215 0 015.21 5.21 5.215 5.215 0 01-5.21 5.21zm42.317 0a5.215 5.215 0 01-5.21-5.21 5.215 5.215 0 015.21-5.21 5.215 5.215 0 015.21 5.21 5.215 5.215 0 01-5.21 5.21zm10.338-15.388h-1.362a1.364 1.364 0 01-1.362-1.363v-1.362h2.724v2.725h0z" fill="#242734" stroke="#fff" stroke-width=".457"/><path d="M21.72 58.47a2.487 2.487 0 00-2.485 2.484 2.487 2.487 0 002.485 2.484 2.487 2.487 0 002.484-2.484 2.487 2.487 0 00-2.484-2.485zM64.036 58.47a2.487 2.487 0 00-2.484 2.484 2.487 2.487 0 002.484 2.484 2.487 2.487 0 002.485-2.484 2.487 2.487 0 00-2.485-2.485zM49.93 53.34H31.978a1.202 1.202 0 000 2.405H49.93a1.202 1.202 0 000-2.405zM19.154 48.21H3.767a1.202 1.202 0 000 2.405h15.387a1.202 1.202 0 000-2.404zM41.804 31.893c-.469-.47-1.23-.47-1.7 0l-10.69 10.69-5.562-5.56a1.202 1.202 0 10-1.7 1.7l6.412 6.41a1.197 1.197 0 001.7 0l11.54-11.54c.47-.47.47-1.23 0-1.7z" fill="#242734" stroke="#fff" stroke-width=".457"/></g><defs><clipPath id="hclip0"><path fill="#fff" d="M0 0h84v84H0z"/></clipPath></defs></svg><svg width="54" height="54" fill="none" viewBox="-17 -17 92 92" id="multi--kitchen" y="302" xmlns="http://www.w3.org/2000/svg"><path d="M55.281 5.438H2.72a.907.907 0 01-.906-.907V2.72c0-.5.406-.906.906-.906H55.28c.5 0 .907.406.907.906V4.53c0 .5-.407.907-.907.907z" fill="#FFDD63"/><path d="M49.844 22.656h1.812V29h-1.812v-6.344zM40.781 22.656h1.813V29H40.78v-6.344z" fill="#242734"/><path d="M54.54 35.344h-7.578l.83-4.978a2.71 2.71 0 012.68-2.272h.554a2.71 2.71 0 012.682 2.272l.831 4.978zM41.688 35.344c-2 0-3.626-1.626-3.626-3.625 0-2 1.626-3.625 3.626-3.625 1.999 0 3.624 1.626 3.624 3.625s-1.625 3.625-3.624 3.625zM51.656 48.938h-3.625a1.812 1.812 0 01-1.812-1.813v-1.813h7.25v1.813a1.812 1.812 0 01-1.813 1.813zM38.969 48.938h-3.625a1.812 1.812 0 01-1.813-1.813v-1.813h7.25v1.813a1.812 1.812 0 01-1.812 1.813zM26.281 48.938h-3.625a1.812 1.812 0 01-1.812-1.813v-1.813h7.25v1.813a1.812 1.812 0 01-1.813 1.813z" fill="#FFDD63"/><path d="M55.281 5.438H53.47V19.03H42.594V5.438H40.78V19.03H29.906V5.438h-1.812V19.03H17.219V5.438h-1.813V19.03H4.531V5.438H2.72v15.406H55.28V5.437z" fill="#242734"/><path d="M19.031 9.969h1.813v5.437H19.03V9.97zM11.781 9.969h1.813v5.437H11.78V9.97zM44.406 9.969h1.813v5.437h-1.813V9.97zM37.156 9.969h1.813v5.437h-1.813V9.97zM32.601 37.156c.576-.76.93-1.694.93-2.718v-4.532h1.813v-1.812h-3.792c.102-.285.167-.588.167-.907A2.722 2.722 0 0029 24.47h-3.625a2.722 2.722 0 00-2.719 2.718c0 .32.066.622.167.907h-3.792v1.812h1.813v4.532c0 1.024.354 1.959.93 2.718h-4.555v19.938h39.875V37.156H32.6zm22.68 3.625H44.406V38.97h10.875v1.812zm-23.562 0V38.97h10.875v1.812H31.719zm10.875 1.813V55.28H31.719V42.594h10.875zM24.469 27.187c0-.5.407-.906.906-.906H29a.907.907 0 010 1.813h-3.625a.907.907 0 01-.906-.907zm.906 2.72H31.719v1.812h-9.063v-1.813h2.719zm-2.719 4.53v-.906h9.063v.907A2.722 2.722 0 0129 37.156h-3.625a2.722 2.722 0 01-2.719-2.718zm2.719 4.532h4.531v1.812H19.031V38.97h6.344zm-6.344 3.625h10.875V55.28H19.031V42.594zM44.406 55.28V42.594h10.875V55.28H44.406zM9.063 22.656a4.536 4.536 0 00-4.532 4.532v6.343H.906V57.094h12.688v-14.5h1.812v-5.438h-7.25v-3.625H6.344v-6.343a2.722 2.722 0 012.718-2.72 2.722 2.722 0 012.72 2.72H9.968V29h5.437v-1.813h-1.812a4.537 4.537 0 00-4.531-4.53zm2.718 32.625H2.72V42.594h9.062V55.28zm1.813-14.5H2.719V38.97h10.875v1.812zM2.719 37.156v-1.812h3.625v1.812H2.719z" fill="#242734"/><path d="M4.531 51.656h1.813v1.813H4.53v-1.813zM4.531 44.406h1.813v1.813H4.53v-1.813zM4.531 48.031h1.813v1.813H4.53V48.03z" fill="#242734"/></svg><svg width="34" height="33" fill="none" viewBox="-10 -10 34 33" id="multi--star" y="356" xmlns="http://www.w3.org/2000/svg"><path d="M6.524 1.082a.5.5 0 01.952 0l.845 2.6A1.5 1.5 0 009.747 4.72h2.735a.5.5 0 01.294.904l-2.213 1.608a1.5 1.5 0 00-.545 1.677l.845 2.6a.5.5 0 01-.769.56L7.882 10.46a1.5 1.5 0 00-1.764 0l-2.212 1.608a.5.5 0 01-.77-.56l.846-2.6a1.5 1.5 0 00-.545-1.677L1.224 5.623a.5.5 0 01.294-.904h2.735a1.5 1.5 0 001.426-1.037l.845-2.6z" fill="#FFDD63" stroke="#242734"/></svg></svg>