<?xml version="1.0" encoding="utf-8"?><svg xmlns="http://www.w3.org/2000/svg" xmlns:xlink="http://www.w3.org/1999/xlink"><symbol fill="none" viewBox="0 0 58 57" id="contract" xmlns="http://www.w3.org/2000/svg"><g clip-path="url(#aclip0)"><path d="M13.096 20.226c2.584 0 4.678-2.058 4.678-4.597 0-2.539-2.094-4.597-4.678-4.597-2.583 0-4.677 2.058-4.677 4.597 0 2.539 2.094 4.597 4.677 4.597z" fill="#FFDD63"/><path d="M17.438 13.577l-1.2-1.412-4.954 4.059-1.268-1.245-1.323 1.3 2.475 2.433 6.27-5.135zM34.613 12.87H20.581v1.84h14.032v-1.84zM36.484 16.548H20.581v1.839h15.903v-1.839zM17.438 22.77l-1.2-1.412-4.954 4.06-1.268-1.246-1.323 1.3 2.475 2.433 6.27-5.135zM40.226 22.064H20.581v1.84h19.645v-1.84zM24.323 25.742h-3.742v1.839h3.742v-1.84zM40.225 25.742H26.193v1.839h14.032v-1.84zM17.438 31.964l-1.2-1.412-4.954 4.059-1.268-1.245-1.323 1.3 2.475 2.433 6.27-5.135zM40.226 31.258H20.581v1.839h19.645v-1.839zM34.613 34.935H20.581v1.839h14.032v-1.839zM40.225 34.935h-3.742v1.839h3.742v-1.839zM40.225 12.87h-3.742v1.84h3.742v-1.84z" fill="#242734"/><path d="M55.194 42.29H47.71V4.597C47.71 2.062 45.612 0 43.033 0H4.678C2.1 0 .001 2.062.001 4.597c0 2.535 2.098 4.597 4.677 4.597V57h39.29v-5.516h3.742v-3.678h7.484c1.547 0 2.807-1.237 2.807-2.758 0-1.52-1.26-2.758-2.807-2.758zM45.84 4.597V42.29h-1.87V7.355h-.936c-1.547 0-2.806-1.238-2.806-2.758 0-1.521 1.259-2.758 2.806-2.758 1.547 0 2.806 1.237 2.806 2.758zm-43.967 0c0-1.52 1.259-2.758 2.806-2.758h34.637c-.594.77-.96 1.719-.96 2.758a4.5 4.5 0 00.96 2.758H4.678c-1.547 0-2.806-1.238-2.806-2.758zM6.549 55.16V9.194h35.549V42.29H15.753l-8.42 2.758 8.42 2.758h26.344v7.355H6.55zm6.7-10.113l1.72-.563v1.126l-1.72-.563zm32.59 4.597h-1.87v-1.839h1.87v1.839zm1.871-3.677H16.84v-1.84h30.87v1.84zm3.742 0h-1.87v-1.84h1.87v1.84zm3.742 0h-1.87v-1.84h1.87c.517 0 .936.414.936.92 0 .507-.42.92-.936.92z" fill="#242734"/><path fill="#FFDD63" d="M17 44h31v2H17z"/></g><defs><clipPath id="aclip0"><path fill="#fff" d="M0 0h58v57H0z"/></clipPath></defs></symbol><symbol fill="none" viewBox="0 0 84 84" id="delivery" xmlns="http://www.w3.org/2000/svg"><g clip-path="url(#bclip0)"><path fill="#FFDD63" d="M71 47h4v4h-4z"/><circle cx="22" cy="61" r="6" fill="#FFDD63"/><circle cx="64" cy="61" r="6" fill="#FFDD63"/><path d="M71.404 40.59l-1.988-7.954c.543-.115.951-.597.951-1.175v-1.282a5.055 5.055 0 00-5.049-5.05h-9.056v-2.645A2.487 2.487 0 0053.777 20H7.614a2.487 2.487 0 00-2.485 2.485v21.799a1.202 1.202 0 002.405 0v-21.8a.08.08 0 01.08-.08h46.163a.08.08 0 01.08.08v21.8a1.202 1.202 0 002.405 0v-1.362H70.45a3.934 3.934 0 013.735 2.725h-3.738c-.664 0-1.202.538-1.202 1.202v2.564a3.771 3.771 0 003.767 3.767h1.362v5.29h-3.143c-1.033-2.982-3.867-5.13-7.195-5.13-3.329 0-6.163 2.148-7.196 5.13h-.579v-9.057a1.202 1.202 0 00-2.404 0v9.056H28.915c-1.033-2.981-3.867-5.129-7.196-5.129-3.328 0-6.163 2.148-7.195 5.13h-6.91a.08.08 0 01-.08-.08v-2.646h5.209a1.202 1.202 0 100-2.404H1.203a1.202 1.202 0 000 2.404h3.926v2.645a2.487 2.487 0 002.485 2.485h6.494l-.002.08c0 4.198 3.415 7.613 7.613 7.613s7.614-3.415 7.614-7.613l-.002-.08h27.093l-.002.08c0 4.198 3.415 7.613 7.614 7.613 4.198 0 7.613-3.415 7.613-7.613l-.002-.08h3.93c.663 0 1.202-.538 1.202-1.203V46.849c0-3.166-2.336-5.796-5.375-6.258zM56.262 27.534h9.056a2.648 2.648 0 012.645 2.645v.08H56.262v-2.725zm0 12.983v-7.854h10.682l1.964 7.854H56.262zM21.719 66.164a5.215 5.215 0 01-5.21-5.21 5.215 5.215 0 015.21-5.21 5.215 5.215 0 015.21 5.21 5.215 5.215 0 01-5.21 5.21zm42.317 0a5.215 5.215 0 01-5.21-5.21 5.215 5.215 0 015.21-5.21 5.215 5.215 0 015.21 5.21 5.215 5.215 0 01-5.21 5.21zm10.338-15.388h-1.362a1.364 1.364 0 01-1.362-1.363v-1.362h2.724v2.725h0z" fill="#242734" stroke="#fff" stroke-width=".457"/><path d="M21.72 58.47a2.487 2.487 0 00-2.485 2.484 2.487 2.487 0 002.485 2.484 2.487 2.487 0 002.484-2.484 2.487 2.487 0 00-2.484-2.485zM64.036 58.47a2.487 2.487 0 00-2.484 2.484 2.487 2.487 0 002.484 2.484 2.487 2.487 0 002.485-2.484 2.487 2.487 0 00-2.485-2.485zM49.93 53.34H31.978a1.202 1.202 0 000 2.405H49.93a1.202 1.202 0 000-2.405zM19.154 48.21H3.767a1.202 1.202 0 000 2.405h15.387a1.202 1.202 0 000-2.404zM41.804 31.893c-.469-.47-1.23-.47-1.7 0l-10.69 10.69-5.562-5.56a1.202 1.202 0 10-1.7 1.7l6.412 6.41a1.197 1.197 0 001.7 0l11.54-11.54c.47-.47.47-1.23 0-1.7z" fill="#242734" stroke="#fff" stroke-width=".457"/></g><defs><clipPath id="bclip0"><path fill="#fff" d="M0 0h84v84H0z"/></clipPath></defs></symbol><symbol fill="none" viewBox="0 0 58 58" id="kitchen" xmlns="http://www.w3.org/2000/svg"><path d="M55.281 5.438H2.72a.907.907 0 01-.906-.907V2.72c0-.5.406-.906.906-.906H55.28c.5 0 .907.406.907.906V4.53c0 .5-.407.907-.907.907z" fill="#FFDD63"/><path d="M49.844 22.656h1.812V29h-1.812v-6.344zM40.781 22.656h1.813V29H40.78v-6.344z" fill="#242734"/><path d="M54.54 35.344h-7.578l.83-4.978a2.71 2.71 0 012.68-2.272h.554a2.71 2.71 0 012.682 2.272l.831 4.978zM41.688 35.344c-2 0-3.626-1.626-3.626-3.625 0-2 1.626-3.625 3.626-3.625 1.999 0 3.624 1.626 3.624 3.625s-1.625 3.625-3.624 3.625zM51.656 48.938h-3.625a1.812 1.812 0 01-1.812-1.813v-1.813h7.25v1.813a1.812 1.812 0 01-1.813 1.813zM38.969 48.938h-3.625a1.812 1.812 0 01-1.813-1.813v-1.813h7.25v1.813a1.812 1.812 0 01-1.812 1.813zM26.281 48.938h-3.625a1.812 1.812 0 01-1.812-1.813v-1.813h7.25v1.813a1.812 1.812 0 01-1.813 1.813z" fill="#FFDD63"/><path d="M55.281 5.438H53.47V19.03H42.594V5.438H40.78V19.03H29.906V5.438h-1.812V19.03H17.219V5.438h-1.813V19.03H4.531V5.438H2.72v15.406H55.28V5.437z" fill="#242734"/><path d="M19.031 9.969h1.813v5.437H19.03V9.97zM11.781 9.969h1.813v5.437H11.78V9.97zM44.406 9.969h1.813v5.437h-1.813V9.97zM37.156 9.969h1.813v5.437h-1.813V9.97zM32.601 37.156c.576-.76.93-1.694.93-2.718v-4.532h1.813v-1.812h-3.792c.102-.285.167-.588.167-.907A2.722 2.722 0 0029 24.47h-3.625a2.722 2.722 0 00-2.719 2.718c0 .32.066.622.167.907h-3.792v1.812h1.813v4.532c0 1.024.354 1.959.93 2.718h-4.555v19.938h39.875V37.156H32.6zm22.68 3.625H44.406V38.97h10.875v1.812zm-23.562 0V38.97h10.875v1.812H31.719zm10.875 1.813V55.28H31.719V42.594h10.875zM24.469 27.187c0-.5.407-.906.906-.906H29a.907.907 0 010 1.813h-3.625a.907.907 0 01-.906-.907zm.906 2.72H31.719v1.812h-9.063v-1.813h2.719zm-2.719 4.53v-.906h9.063v.907A2.722 2.722 0 0129 37.156h-3.625a2.722 2.722 0 01-2.719-2.718zm2.719 4.532h4.531v1.812H19.031V38.97h6.344zm-6.344 3.625h10.875V55.28H19.031V42.594zM44.406 55.28V42.594h10.875V55.28H44.406zM9.063 22.656a4.536 4.536 0 00-4.532 4.532v6.343H.906V57.094h12.688v-14.5h1.812v-5.438h-7.25v-3.625H6.344v-6.343a2.722 2.722 0 012.718-2.72 2.722 2.722 0 012.72 2.72H9.968V29h5.437v-1.813h-1.812a4.537 4.537 0 00-4.531-4.53zm2.718 32.625H2.72V42.594h9.062V55.28zm1.813-14.5H2.719V38.97h10.875v1.812zM2.719 37.156v-1.812h3.625v1.812H2.719z" fill="#242734"/><path d="M4.531 51.656h1.813v1.813H4.53v-1.813zM4.531 44.406h1.813v1.813H4.53v-1.813zM4.531 48.031h1.813v1.813H4.53V48.03z" fill="#242734"/></symbol><symbol fill="none" viewBox="0 0 14 13" id="star" xmlns="http://www.w3.org/2000/svg"><path d="M6.524 1.082a.5.5 0 01.952 0l.845 2.6A1.5 1.5 0 009.747 4.72h2.735a.5.5 0 01.294.904l-2.213 1.608a1.5 1.5 0 00-.545 1.677l.845 2.6a.5.5 0 01-.769.56L7.882 10.46a1.5 1.5 0 00-1.764 0l-2.212 1.608a.5.5 0 01-.77-.56l.846-2.6a1.5 1.5 0 00-.545-1.677L1.224 5.623a.5.5 0 01.294-.904h2.735a1.5 1.5 0 001.426-1.037l.845-2.6z" fill="#FFDD63" stroke="#242734"/></symbol></svg>